<svg xmlns="http://www.w3.org/2000/svg" version="1.1" xmlns:xlink="http://www.w3.org/1999/xlink" xmlns:svgjs="http://svgjs.com/svgjs" width="1000" height="1000"><rect width="1000" height="1000" rx="200" ry="200" fill="#dadfe6"></rect><g transform="matrix(31.25,0,0,31.25,0,0)"><svg xmlns="http://www.w3.org/2000/svg" version="1.1" xmlns:xlink="http://www.w3.org/1999/xlink" xmlns:svgjs="http://svgjs.com/svgjs" width="32" height="32"><svg xmlns="http://www.w3.org/2000/svg" xmlns:xlink="http://www.w3.org/1999/xlink" aria-hidden="true" role="img" class="iconify iconify--mdi" width="32" height="32" preserveAspectRatio="xMidYMid meet" viewBox="0 0 24 24"><path d="M19 3H5c-1.1 0-2 .9-2 2v14c0 1.1.9 2 2 2h14c1.1 0 2-.9 2-2V5c0-1.1-.9-2-2-2m-8 5H9v2c0 1.1-.9 2-2 2c1.1 0 2 .9 2 2v2h2v2H9c-1.1 0-2-.9-2-2v-1c0-1.1-.9-2-2-2v-2c1.1 0 2-.9 2-2V8c0-1.1.9-2 2-2h2v2m8 5c-1.1 0-2 .9-2 2v1c0 1.1-.9 2-2 2h-2v-2h2v-2c0-1.1.9-2 2-2c-1.1 0-2-.9-2-2V8h-2V6h2c1.1 0 2 .9 2 2v1c0 1.1.9 2 2 2v2z" fill="currentColor"></path></svg></svg></g></svg>